<svg xmlns="http://www.w3.org/2000/svg" viewBox="0 0 24 24"><path fill="currentColor" d="M6.9,3c-2.1,0-3.9,1.7-3.9,3.9v1.3h1.3v-1.3c0-1.4,1.1-2.6,2.6-2.6h1.3v-1.3h-1.3ZM9.4,3v1.3h5.1v-1.3h-5.1ZM15.9,3v1.3h1.3c1.4,0,2.6,1.1,2.6,2.6v1.3h1.3v-1.3c0-2.1-1.7-3.9-3.9-3.9h-1.3ZM9.4,8.1c-.7,0-1.3.6-1.3,1.3s.6,1.3,1.3,1.3,1.3-.6,1.3-1.3-.6-1.3-1.3-1.3ZM3,9.4v5.1h1.3v-5.1h-1.3ZM19.7,9.4v5.1h1.3v-5.1h-1.3ZM13.9,12l-2.6,2.6-1.9-1.3-2.6,2.6v.6c0,.6.6.6.6.6h9s.6,0,.6-.6v-1.3l-3.2-3.2ZM3,15.9v1.3c0,2.1,1.7,3.9,3.9,3.9h1.3v-1.3h-1.3c-1.4,0-2.6-1.1-2.6-2.6v-1.3h-1.3ZM19.7,15.9v1.3c0,1.4-1.1,2.6-2.6,2.6h-1.3v1.3h1.3c2.1,0,3.9-1.7,3.9-3.9v-1.3h-1.3ZM9.4,19.7v1.3h5.1v-1.3h-5.1Z"/></svg>